<mxfile host="app.diagrams.net" modified="2023-02-07T07:14:52.143Z" agent="5.0 (Windows NT 10.0; Win64; x64) AppleWebKit/537.36 (KHTML, like Gecko) Chrome/101.0.0.0 Safari/537.36" version="20.8.5" etag="UzR4PbnLsSwlQYAKFuk9" type="github">
  <diagram id="RPLLOnT6U4_Z9vycRjsD" name="第 1 页">
    <mxGraphModel dx="1354" dy="635" grid="1" gridSize="10" guides="1" tooltips="1" connect="1" arrows="1" fold="1" page="1" pageScale="1" pageWidth="827" pageHeight="1169" math="0" shadow="0">
      <root>
        <mxCell id="0" />
        <mxCell id="1" parent="0" />
        <mxCell id="73EJcNYCGQgQ_D7qAPox-3" value="" style="edgeStyle=orthogonalEdgeStyle;rounded=0;orthogonalLoop=1;jettySize=auto;html=1;" edge="1" parent="1" source="73EJcNYCGQgQ_D7qAPox-1" target="73EJcNYCGQgQ_D7qAPox-2">
          <mxGeometry relative="1" as="geometry" />
        </mxCell>
        <mxCell id="73EJcNYCGQgQ_D7qAPox-1" value="开始" style="strokeWidth=2;html=1;shape=mxgraph.flowchart.start_1;whiteSpace=wrap;" vertex="1" parent="1">
          <mxGeometry x="230" y="40" width="100" height="60" as="geometry" />
        </mxCell>
        <mxCell id="73EJcNYCGQgQ_D7qAPox-14" value="" style="edgeStyle=orthogonalEdgeStyle;rounded=0;orthogonalLoop=1;jettySize=auto;html=1;" edge="1" parent="1" source="73EJcNYCGQgQ_D7qAPox-2" target="73EJcNYCGQgQ_D7qAPox-4">
          <mxGeometry relative="1" as="geometry" />
        </mxCell>
        <mxCell id="73EJcNYCGQgQ_D7qAPox-2" value="参数校验" style="rounded=1;whiteSpace=wrap;html=1;absoluteArcSize=1;arcSize=14;strokeWidth=2;" vertex="1" parent="1">
          <mxGeometry x="230" y="140" width="100" height="50" as="geometry" />
        </mxCell>
        <mxCell id="73EJcNYCGQgQ_D7qAPox-10" value="是" style="edgeStyle=orthogonalEdgeStyle;rounded=0;orthogonalLoop=1;jettySize=auto;html=1;" edge="1" parent="1" source="73EJcNYCGQgQ_D7qAPox-4" target="73EJcNYCGQgQ_D7qAPox-6">
          <mxGeometry relative="1" as="geometry" />
        </mxCell>
        <mxCell id="73EJcNYCGQgQ_D7qAPox-13" value="否" style="edgeStyle=orthogonalEdgeStyle;rounded=0;orthogonalLoop=1;jettySize=auto;html=1;" edge="1" parent="1" source="73EJcNYCGQgQ_D7qAPox-4" target="73EJcNYCGQgQ_D7qAPox-11">
          <mxGeometry relative="1" as="geometry" />
        </mxCell>
        <mxCell id="73EJcNYCGQgQ_D7qAPox-4" value="审批通过" style="strokeWidth=2;html=1;shape=mxgraph.flowchart.decision;whiteSpace=wrap;" vertex="1" parent="1">
          <mxGeometry x="230" y="230" width="100" height="100" as="geometry" />
        </mxCell>
        <mxCell id="73EJcNYCGQgQ_D7qAPox-20" value="" style="edgeStyle=orthogonalEdgeStyle;rounded=0;orthogonalLoop=1;jettySize=auto;html=1;" edge="1" parent="1" source="73EJcNYCGQgQ_D7qAPox-6" target="73EJcNYCGQgQ_D7qAPox-18">
          <mxGeometry relative="1" as="geometry" />
        </mxCell>
        <mxCell id="73EJcNYCGQgQ_D7qAPox-6" value="修改资源状态为已发布" style="rounded=1;whiteSpace=wrap;html=1;absoluteArcSize=1;arcSize=14;strokeWidth=2;" vertex="1" parent="1">
          <mxGeometry x="230" y="380" width="100" height="60" as="geometry" />
        </mxCell>
        <mxCell id="73EJcNYCGQgQ_D7qAPox-19" value="" style="edgeStyle=orthogonalEdgeStyle;rounded=0;orthogonalLoop=1;jettySize=auto;html=1;" edge="1" parent="1" source="73EJcNYCGQgQ_D7qAPox-11" target="73EJcNYCGQgQ_D7qAPox-18">
          <mxGeometry relative="1" as="geometry" />
        </mxCell>
        <mxCell id="73EJcNYCGQgQ_D7qAPox-11" value="修改资源状态为驳回" style="rounded=1;whiteSpace=wrap;html=1;absoluteArcSize=1;arcSize=14;strokeWidth=2;" vertex="1" parent="1">
          <mxGeometry x="390" y="250" width="100" height="60" as="geometry" />
        </mxCell>
        <mxCell id="73EJcNYCGQgQ_D7qAPox-22" style="edgeStyle=orthogonalEdgeStyle;rounded=0;orthogonalLoop=1;jettySize=auto;html=1;" edge="1" parent="1" source="73EJcNYCGQgQ_D7qAPox-18" target="73EJcNYCGQgQ_D7qAPox-21">
          <mxGeometry relative="1" as="geometry">
            <Array as="points">
              <mxPoint x="440" y="518" />
            </Array>
          </mxGeometry>
        </mxCell>
        <mxCell id="73EJcNYCGQgQ_D7qAPox-18" value="处理工单" style="rounded=1;whiteSpace=wrap;html=1;absoluteArcSize=1;arcSize=14;strokeWidth=2;" vertex="1" parent="1">
          <mxGeometry x="390" y="375" width="100" height="70" as="geometry" />
        </mxCell>
        <mxCell id="73EJcNYCGQgQ_D7qAPox-24" value="" style="edgeStyle=orthogonalEdgeStyle;rounded=0;orthogonalLoop=1;jettySize=auto;html=1;" edge="1" parent="1" source="73EJcNYCGQgQ_D7qAPox-21" target="73EJcNYCGQgQ_D7qAPox-23">
          <mxGeometry relative="1" as="geometry" />
        </mxCell>
        <mxCell id="73EJcNYCGQgQ_D7qAPox-21" value="添加操作记录" style="rounded=1;whiteSpace=wrap;html=1;absoluteArcSize=1;arcSize=14;strokeWidth=2;" vertex="1" parent="1">
          <mxGeometry x="390" y="500" width="100" height="60" as="geometry" />
        </mxCell>
        <mxCell id="73EJcNYCGQgQ_D7qAPox-23" value="结束" style="strokeWidth=2;html=1;shape=mxgraph.flowchart.terminator;whiteSpace=wrap;" vertex="1" parent="1">
          <mxGeometry x="580" y="500" width="100" height="60" as="geometry" />
        </mxCell>
      </root>
    </mxGraphModel>
  </diagram>
</mxfile>
